<svg width="235" height="43" fill="none" xmlns="http://www.w3.org/2000/svg"><path fill-rule="evenodd" clip-rule="evenodd" d="M58.292 28.945h8.923l-4.713-7.584-8.653 13.71-3.944.004 10.533-16.466a2.46 2.46 0 0 1 2.058-1.072c.828 0 1.588.39 2.037 1.043l10.57 16.495-3.946-.004-1.85-3.064h-9.043l-1.972-3.061ZM99.23 32.01V17.71h-3.346v15.699c0 .434.177.85.487 1.16.328.323.76.503 1.226.503h15.248l1.967-3.06H99.229Zm-55.321-2.56a5.876 5.876 0 0 0 5.878-5.87 5.876 5.876 0 0 0-5.878-5.871H29.274V35.07h3.343V20.77h11.06a2.811 2.811 0 1 1 0 5.622l-9.423-.003 9.98 8.683h4.858l-6.716-5.624 1.532.003ZM8.695 35.071c-4.8 0-8.695-3.884-8.695-8.68 0-4.795 3.894-8.682 8.695-8.682h10.107c4.801 0 8.694 3.887 8.694 8.682 0 4.797-3.893 8.684-8.694 8.684L8.695 35.07Zm9.883-3.06a5.623 5.623 0 0 0 5.628-5.62 5.624 5.624 0 0 0-5.628-5.621l-9.658-.001a5.626 5.626 0 0 0-5.63 5.622c0 3.106 2.52 5.62 5.63 5.62h9.658Zm63.5 3.06c-4.8 0-8.696-3.884-8.696-8.68 0-4.795 3.896-8.682 8.696-8.682h12.01l-1.967 3.06h-9.817a5.627 5.627 0 0 0-5.632 5.622 5.626 5.626 0 0 0 5.632 5.62H94.36l-1.964 3.06H82.078Zm40.906-3.06a5.627 5.627 0 0 1-5.415-4.084h14.294l1.968-3.06-16.266-.002a5.63 5.63 0 0 1 5.419-4.096h9.81l1.971-3.06h-12.011c-4.799 0-8.694 3.887-8.694 8.682 0 4.796 3.895 8.68 8.694 8.68h10.318l1.966-3.06h-12.054Z" fill="#363C41"/><path stroke="#363C41" stroke-width="2" d="M153.574 20.168v12.276M147.313 26.183h12.277"/><path d="M188.573 0h2.855c.15 0 .27.12.27.27v28.614c0 .15-.12.27-.27.27h-2.855c-.15 0-.27-.12-.27-.27V.27c0-.15.12-.27.27-.27Zm19.653 23.54v.72c0 .33-.06.751-.18 1.292-.091.51-.361 1.08-.842 1.591-.451.51-1.112.99-2.043 1.411-.932.36-2.164.57-3.787.57-1.622 0-2.854-.21-3.786-.57-.931-.36-1.562-.84-2.043-1.411-.451-.51-.751-1.08-.842-1.621-.09-.54-.18-.961-.18-1.261V7.957c0-.15.12-.27.271-.27h2.854a.27.27 0 0 1 .271.27V23.21c0 .51.06.87.15 1.14.06.3.21.571.421.811.21.27.541.48.991.66.421.181 1.022.271 1.773.271.782 0 1.413-.09 1.863-.27.451-.18.812-.36 1.022-.63.24-.24.391-.511.481-.811.06-.3.18-.51.18-1.231V7.957c0-.15.12-.27.271-.27h2.854a.27.27 0 0 1 .271.27l.03 15.583Zm9.736-15.823h1.923c.18 0 .301.18.24.33l-.661 2.492c-.03.12-.15.21-.24.21h-1.352c-.721 0-1.292.09-1.743.3-.421.21-.811.39-1.022.66-.21.271-.36.511-.451.812-.06.3-.09.54-.09.81v15.584c0 .15-.12.27-.27.27h-2.885c-.15 0-.27-.12-.27-.27V12.61c0-.3.06-.72.18-1.261.09-.54.361-1.081.841-1.622.451-.51 1.112-.99 2.044-1.41.901-.421 2.163-.601 3.756-.601Zm-39.305 0c2.314 0 4.057.45 5.138 1.38 1.082.931 1.623 2.072 1.623 3.454v11.71c0 .48-.09.99-.27 1.56a3.649 3.649 0 0 1-.992 1.562c-.511.48-1.202.87-2.073 1.201-.872.33-2.014.48-3.426.48-1.412 0-2.554-.18-3.426-.48-.871-.3-1.562-.72-2.073-1.2-.511-.481-.842-.992-.992-1.562-.18-.54-.3-1.081-.3-1.561v-1.862c0-.99.27-1.922.781-2.762.541-.811 1.262-1.412 2.194-1.742.48-.18.991-.33 1.622-.54.601-.21 1.202-.39 1.773-.63.571-.211 1.052-.361 1.503-.511.42-.18.691-.24.811-.3.09-.06.24-.12.391-.21.18-.09.33-.24.511-.391.18-.21.3-.39.39-.63.12-.24.181-.511.181-.841v-.75c0-.271-.061-.511-.181-.812-.09-.3-.3-.51-.541-.78-.24-.24-.631-.42-1.051-.57-.421-.15-.962-.21-1.653-.21-1.322 0-2.194.27-2.705.81-.39.48-.661 1.05-.691 1.711 0 .15-.12.24-.27.24h-2.795c-.15 0-.27-.12-.27-.27v-.69c0-.66.12-1.292.36-1.862.241-.63.661-1.14 1.232-1.591a5.65 5.65 0 0 1 2.134-1.021c.841-.18 1.863-.33 3.065-.33Zm3.426 10.539c-.06.27-.211.45-.391.6-.21.15-.391.21-.601.3-.391.15-.841.3-1.292.45-.451.18-.902.33-1.292.451-.481.18-.962.33-1.353.48-.33.15-.631.33-.931.54-.24.211-.451.481-.661.812-.211.36-.301.75-.301 1.26 0 .991.241 1.742.722 2.252.48.48 1.382.751 2.674.751 1.322 0 2.224-.27 2.734-.78.481-.51.722-1.262.722-2.192l-.03-4.924Zm46.156-10.54c2.314 0 4.057.45 5.138 1.382 1.082.93 1.623 2.071 1.623 3.453v11.71c0 .48-.09.99-.27 1.56a3.649 3.649 0 0 1-.992 1.562c-.481.45-1.202.87-2.073 1.201-.872.33-2.014.48-3.426.48-1.412 0-2.554-.18-3.426-.48-.871-.3-1.562-.72-2.073-1.2-.511-.481-.842-.992-.992-1.562-.18-.57-.27-1.111-.27-1.561v-1.862c0-.99.27-1.922.781-2.762a4.219 4.219 0 0 1 2.194-1.742c.48-.18.991-.33 1.622-.54.601-.21 1.202-.39 1.773-.63.571-.211 1.052-.361 1.503-.511.42-.18.691-.24.811-.3.09-.06.24-.12.391-.21.18-.09.33-.24.511-.391.18-.21.3-.39.39-.63.12-.24.18-.511.18-.841v-.75c0-.271-.06-.511-.18-.812-.09-.3-.3-.51-.541-.78-.27-.24-.631-.42-1.051-.57-.421-.15-.962-.21-1.653-.21-1.322 0-2.194.27-2.705.81-.39.48-.661 1.05-.691 1.711 0 .15-.12.24-.27.24h-2.885c-.15 0-.27-.12-.27-.27v-.69c0-.66.12-1.292.36-1.862.241-.57.661-1.11 1.232-1.561a5.65 5.65 0 0 1 2.134-1.021c.901-.21 1.923-.36 3.125-.36Zm3.395 10.54c-.06.27-.21.45-.39.6-.211.15-.391.21-.601.3-.391.15-.842.3-1.292.45-.451.18-.902.33-1.292.451-.481.18-.962.33-1.353.48-.33.15-.631.33-.931.54-.241.211-.451.481-.661.812-.211.33-.301.75-.301 1.26 0 .991.241 1.742.721 2.252.481.48 1.383.751 2.675.751 1.322 0 2.224-.27 2.734-.78.481-.51.722-1.262.722-2.192l-.031-4.924ZM192.9 33.477c0-.15.121-.27.271-.27h1.653c.15 0 .27.12.27.27v7.357h3.276c.15 0 .27.12.27.27v1.501c0 .15-.12.27-.27.27h-5.199a.27.27 0 0 1-.271-.27v-9.128Zm6.281 9.038 4.297-9.248c.03-.09.15-.15.24-.15h.151c.09 0 .18.06.24.15l4.297 9.248c.09.18-.03.36-.24.36h-1.533c-.24 0-.36-.09-.481-.33l-.48-1.08h-3.757l-.48 1.11a.51.51 0 0 1-.481.33h-1.503c-.27-.03-.36-.21-.27-.39Zm5.649-2.942-1.052-2.282-1.021 2.282h2.073Zm5.439-4.324h-1.983a.27.27 0 0 1-.271-.27v-1.502c0-.15.121-.27.271-.27h6.1c.15 0 .27.12.27.27v1.502c0 .15-.12.27-.27.27h-1.953v7.356c0 .15-.12.27-.271.27h-1.652a.27.27 0 0 1-.271-.27V35.25h.03Zm4.057 7.266 4.297-9.248c.03-.09.15-.15.24-.15h.151c.09 0 .18.06.24.15l4.297 9.248c.09.18-.03.36-.24.36h-1.533c-.24 0-.36-.09-.481-.33l-.48-1.08h-3.757l-.48 1.11a.52.52 0 0 1-.511.33h-1.503c-.21-.03-.33-.21-.24-.39Zm5.649-2.942-1.052-2.282-1.021 2.282h2.073Zm5.65-6.276c0-.12.15-.21.24-.21h.21c.06 0 .181.06.241.15l3.185 5.945h.03l3.185-5.945c.03-.09.181-.15.241-.15h.21c.12 0 .24.09.24.21l1.563 9.248c.03.18-.09.3-.27.3h-1.623c-.12 0-.241-.12-.271-.21l-.631-4.264h-.03l-2.313 4.444c-.031.09-.151.15-.241.15h-.24c-.09 0-.181-.06-.241-.15l-2.314-4.444h-.03l-.601 4.264c0 .12-.12.21-.27.21h-1.623c-.18 0-.3-.12-.27-.3l1.623-9.248Z" fill="#363C41"/></svg>